<svg xmlns="http://www.w3.org/2000/svg" xmlns:xlink="http://www.w3.org/1999/xlink" viewBox="0 0 422.09 422.09"><defs><style>.cls-1{fill:#fff;}.cls-2,.cls-9{fill:#42c3bc;}.cls-3{fill:#3fb2aa;}.cls-4{fill:#e8cbb3;}.cls-5{fill:url(#Gradient_bez_nazwy_10);}.cls-6{fill:#f4d9bf;}.cls-7{fill:#dd0e0e;}.cls-8{fill:#1c1c1c;}.cls-9{fill-rule:evenodd;}</style><linearGradient id="Gradient_bez_nazwy_10" x1="198.08" y1="285.4" x2="216.53" y2="279.56" gradientUnits="userSpaceOnUse"><stop offset="0" stop-color="#dec3af" stop-opacity="0"/><stop offset="1" stop-color="#ddc0ab"/></linearGradient></defs><title>avatar</title><g id="Warstwa_4" data-name="Warstwa 4"><circle class="cls-1" cx="211.05" cy="211.05" r="211.05"/><path class="cls-2" d="M315.9,347.7c-69,0-66.5-7.06-70.62-18.89-4.63-13.29,2.05-24.75,2.05-24.75H191.9s5.88,13.27.82,24.75c-4.51,10.26-1.64,18.89-70.62,18.89,0,0-25.45,3.28-24.63,31.2.1,3.54.18,7.9.24,12.82a211.11,211.11,0,0,0,242.58,0c.06-4.92.13-9.28.24-12.82C341.35,351,315.9,347.7,315.9,347.7Z" transform="translate(-7.95 -7.95)"/><ellipse class="cls-3" cx="211.65" cy="296.1" rx="27.71" ry="2.68"/><path d="M219.47,257.71" transform="translate(-7.95 -7.95)"/><path class="cls-4" d="M203.05,262.4l31.32-.55,2.5,44.31s-4.65.57-17.4.57a175.71,175.71,0,0,1-18.34-.67Z" transform="translate(-7.95 -7.95)"/><path class="cls-5" d="M203.05,262.4l31.32-.55,1.47,26c-4,13.06-28.63,16.61-34.18,6.16Z" transform="translate(-7.95 -7.95)"/><path class="cls-6" d="M291.65,202.12c0,44.45-45.91,80.48-72.18,80.48-27.94,0-72.19-36-72.19-80.48s32.31-96.24,72.19-96.24S291.65,157.68,291.65,202.12Z" transform="translate(-7.95 -7.95)"/><path class="cls-7" d="M224.8,245.32c-1.7.05-5.8,3.63-5.8,3.63l-1.44-1.51c-1.16-.93-2.5-2.12-4.37-2.12-3.66,0-10.69,4.9-10.69,4.9,5.78,7.09,11.82,8.92,16.5,8.92s11.35-.83,16.49-8.92C235.49,250.22,228.43,245.21,224.8,245.32Z" transform="translate(-7.95 -7.95)"/><path class="cls-8" d="M315.34,162c-11.42-3.62-13.61-23.49-13.61-23.49l-.29.81c-7.72-33.71-26.84-50-43.16-57.93l-.21-.59C253.39,67.61,246.4,55.4,233,53.45a25,25,0,0,0-30.81-2.87c-4.12.91-10.3,1.91-12.88.44a6.23,6.23,0,0,0,2.16,3.63c-10.53,3.79-16.74,14.43-20.22,26.12-.37,1.24-.71,2.43-1.05,3.6-3.63,2-7.4,4.36-11.51,7.14-10.17,6.89-23.59,17.63-31.53,40-4.49,5-14.41,15.33-20.48,15.79,0,0,5.65,6.53,16.24.86a142.22,142.22,0,0,0-.65,33.75h0v0l.12,1.17c2.3,22.63-15.37,24-15.37,24,8.57,2.38,14.54,0,14.54,0-2.38,4.2-8.35,6.09-8.35,6.09a85.73,85.73,0,0,0,16-2.63c.12,3.81.44,8.55,1.15,14.24,2.1,16.94,27,38.71,27,38.71-4.65-5.67-8.1-18.39-10.59-31.91,8.05,8.2,16.23,15.77,16.23,15.77s-.26-.73-.67-2c1.2,2.33,2,3.72,2,3.72-6.42-33.36-.29-51.54-.28-51.56,2.71-2.4,4.42-4.28,10.64-6.1,18-5.25,35.58-11.47,50.82-17.35-10.06,8.54-24.18,18.09-24.18,18.09,7.28-1,46.12-21.41,70.2-34.38,1.45,12.42,2.38,26.41.2,31.91,0,0,6.33-9.72,9.18-25.92,3.57,7.56,7.45,17.79,7.45,26.54,0,0,3.06,15.23,1.43,29.5A57.94,57.94,0,0,0,303,194.24c3.43-14.58,4.09-22.88,2.8-32.87A14.8,14.8,0,0,0,315.34,162Z" transform="translate(-7.95 -7.95)"/><path class="cls-9" d="M215.72,198.82a14.28,14.28,0,0,1,7.49,0,4.38,4.38,0,0,1,2.71,3.33c.53,1.95,1,3.92,1.58,5.85a46,46,0,0,0,4.57,11.11c3.32,5.48,8.75,6.22,13.68,6.85,9.83,1.24,17.3,1.39,27.06-1a15.92,15.92,0,0,0,3.87-1.53,9.84,9.84,0,0,0,4.27-4.95,67,67,0,0,0,2.66-7.57c.56-1.86,1.11-3.73,1.67-5.59a10.19,10.19,0,0,1,1.58-3.2,28.12,28.12,0,0,0,1.62-2.71,4.83,4.83,0,0,0,.53-2.06c.12-2.57.25-5.26.29-7.83.11-6.92-31.7-5.72-35.39-5.56-1.68.07-3.35.18-5,.33-4.9.43-12.85,1.34-17.54,3-2.07.75-9.13,3-11.87,2.75-2.75.26-9.81-2-11.88-2.75-4.69-1.71-12.64-2.62-17.54-3-1.68-.15-3.35-.26-5-.33-3.69-.16-35.5-1.36-35.39,5.56.05,2.57.17,5.26.29,7.83a4.7,4.7,0,0,0,.54,2.06,26.18,26.18,0,0,0,1.61,2.71,10.42,10.42,0,0,1,1.59,3.2c.55,1.86,1.1,3.73,1.66,5.59a67,67,0,0,0,2.66,7.57,9.84,9.84,0,0,0,4.27,4.95,15.92,15.92,0,0,0,3.87,1.53c9.76,2.35,17.24,2.2,27.06,1,4.93-.63,10.36-1.37,13.68-6.85A46,46,0,0,0,211.43,208c.56-1.93,1-3.9,1.58-5.85a4.38,4.38,0,0,1,2.71-3.33Zm13.45-4.12h0a5.36,5.36,0,0,1,2.66-3.25c4.21-2.25,10.33-3.17,14.84-3.67a126.36,126.36,0,0,1,24.75-.15c1.83.16,6.11,1,7.68,2.31a5.59,5.59,0,0,1,1.7,4.25,64.73,64.73,0,0,1-1.42,14.09c-.56,3-2,8-3.57,10.34a8.65,8.65,0,0,1-4.33,3.35,24,24,0,0,1-2.74.83c-7.9,2-15.48,1.72-23.42.48-1.79-.28-3.58-.69-5.36-1.1a9.42,9.42,0,0,1-6.57-4.87c-2-3.34-3.6-9.26-4.2-13.4a36.17,36.17,0,0,1-.45-6.07,11.28,11.28,0,0,1,.43-3.14Zm-19.41,0h0a11.28,11.28,0,0,1,.43,3.14,35.15,35.15,0,0,1-.45,6.07c-.6,4.14-2.15,10.06-4.2,13.4a9.4,9.4,0,0,1-6.57,4.87c-1.78.41-3.57.82-5.36,1.1-7.94,1.24-15.52,1.57-23.42-.48a24.62,24.62,0,0,1-2.74-.83,8.69,8.69,0,0,1-4.33-3.35c-1.53-2.34-3-7.38-3.57-10.34a64.73,64.73,0,0,1-1.42-14.09,5.59,5.59,0,0,1,1.7-4.25c1.57-1.34,5.85-2.15,7.68-2.31a126.36,126.36,0,0,1,24.75.15c4.51.5,10.63,1.42,14.84,3.67A5.33,5.33,0,0,1,209.76,194.7Z" transform="translate(-7.95 -7.95)"/></g></svg>